<?xml version="1.0" encoding="utf-8"?>
<!-- Generator: Adobe Illustrator 27.6.1, SVG Export Plug-In . SVG Version: 6.00 Build 0)  -->
<svg version="1.1" id="Layer_1" xmlns="http://www.w3.org/2000/svg" xmlns:xlink="http://www.w3.org/1999/xlink" x="0px" y="0px"
	 viewBox="0 0 709 420" style="enable-background:new 0 0 709 420;" xml:space="preserve">
<style type="text/css">
	.st0{fill:#1D1D1B;}
</style>
<g>
	<g>
		<g>
			<path class="st0" d="M503.5,406.3c-108.8,0-197.3-88.5-197.3-197.3S394.7,11.7,503.5,11.7c108.8,0,197.3,88.5,197.3,197.3
				S612.3,406.3,503.5,406.3z M503.5,24.5C401.8,24.5,319,107.2,319,209c0,101.8,82.8,184.5,184.5,184.5
				c101.8,0,184.5-82.8,184.5-184.5C688.1,107.2,605.3,24.5,503.5,24.5z M503.5,328.3c-5.7,0-11.3-2.2-15.7-6.5v0L400,234
				c-6.6-6.6-5.7-12.1-4.6-14.8c1.1-2.7,4.4-7.2,13.8-7.2h34.5c5.2,0,9.4-4.2,9.4-9.3v-70.5c0-12.2,9.9-22.2,22.1-22.2h53.7
				c12.2,0,22.1,9.9,22.1,22.2v70.4c0,5.2,4.2,9.4,9.4,9.4h37.5c9.4,0,12.7,4.5,13.8,7.2c1.1,2.7,2,8.2-4.6,14.8l-87.8,87.8
				C514.9,326.1,509.2,328.3,503.5,328.3z M496.9,312.7c3.6,3.6,9.6,3.6,13.2,0l87.8-87.8c0.1-0.1,0.1-0.1,0.2-0.2
				c-0.1,0-0.2,0-0.3,0h-37.5c-12.2,0-22.2-9.9-22.2-22.2v-70.4c0-5.2-4.2-9.4-9.3-9.4h-53.7c-5.2,0-9.3,4.2-9.3,9.4v70.5
				c0,12.2-9.9,22.1-22.2,22.1h-34.5c-0.1,0-0.2,0-0.3,0c0.1,0.1,0.1,0.1,0.2,0.2L496.9,312.7L496.9,312.7z"/>
		</g>
	</g>
	<g>
		<g>
			<g>
				<g>
					<g>
						<g>
							<g>
								<path class="st0" d="M206.1,407C97,407,8.1,318.2,8.1,209C8.1,99.8,97,11,206.1,11c60,0,116.2,26.9,154,73.7l-9.9,8
									c-35.4-43.8-87.9-69-144.1-69C104,23.8,20.9,106.9,20.9,209c0,102.1,83.1,185.2,185.2,185.2c56.2,0,108.7-25.2,144.2-69.1
									l10,8C322.4,380.1,266.2,407,206.1,407z"/>
							</g>
						</g>
					</g>
				</g>
			</g>
			<g>
				<g>
					<g>
						<g>
							<g>
								<path class="st0" d="M203.1,311.4c-9.3,0-19.3-1.4-29.7-4.2c-22.1-5.9-38.5-15.9-39.2-16.4l6.7-10.9
									c0.8,0.5,61.1,36.7,99.9,6.7c13.5-10.4,19.1-27.7,13.6-42.1c-5.9-15.6-21.1-25.8-45-30.3c-15.1-2.9-28.1-8.1-38.7-15.6
									c-22.9-16.3-23.8-33.7-20.5-45.4c5.2-18.6,18.2-32.4,36.6-38.9c28.9-10.2,67.5-1.9,100.8,21.6l-7.4,10.4
									c-29.9-21.2-64.1-28.9-89.1-20c-14.6,5.2-24.5,15.6-28.6,30.3c-3.2,11.3,2.1,21.9,15.6,31.6c9.1,6.4,20.4,11,33.7,13.5
									c19.7,3.7,45.1,13.4,54.6,38.3c7.5,19.9,0.4,42.7-17.7,56.7C236.1,306.5,220.7,311.4,203.1,311.4z M137.6,285.5l3.4-5.4
									c0,0,0,0,0,0L137.6,285.5z"/>
							</g>
							<g>
								<rect x="199" y="305" class="st0" width="12.8" height="60.2"/>
							</g>
							<g>
								<rect x="199" y="52.8" class="st0" width="12.8" height="60.2"/>
							</g>
						</g>
					</g>
				</g>
			</g>
		</g>
	</g>
</g>
</svg>
